<svg width="183" height="33" viewBox="0 0 183 33" fill="none" xmlns="http://www.w3.org/2000/svg">
<ellipse cx="16.3127" cy="16.4211" rx="16.3127" ry="16.4211" fill="#FF8C39"/>
<path d="M30.6225 13.1836H26.734C26.663 12.6805 26.518 12.2337 26.299 11.843C26.08 11.4465 25.7989 11.1091 25.4556 10.831C25.1123 10.5528 24.7158 10.3397 24.266 10.1918C23.8221 10.0438 23.3397 9.96982 22.8189 9.96982C21.8778 9.96982 21.0581 10.2036 20.3597 10.6712C19.6613 11.1328 19.1198 11.8075 18.7351 12.6953C18.3504 13.5772 18.158 14.6484 18.158 15.9091C18.158 17.2053 18.3504 18.2943 18.7351 19.1761C19.1257 20.058 19.6702 20.7238 20.3686 21.1737C21.067 21.6235 21.8749 21.8484 22.7923 21.8484C23.3072 21.8484 23.7836 21.7803 24.2216 21.6442C24.6655 21.508 25.0591 21.3098 25.4023 21.0494C25.7456 20.783 26.0297 20.4605 26.2546 20.0817C26.4854 19.7029 26.6452 19.2708 26.734 18.7855L30.6225 18.8033C30.5219 19.6378 30.2704 20.4427 29.8679 21.218C29.4714 21.9875 28.9357 22.677 28.261 23.2866C27.5922 23.8903 26.7932 24.3697 25.864 24.7248C24.9407 25.074 23.8961 25.2486 22.7301 25.2486C21.1084 25.2486 19.6584 24.8816 18.38 24.1477C17.1075 23.4138 16.1013 22.3514 15.3615 20.9606C14.6276 19.5697 14.2607 17.8859 14.2607 15.9091C14.2607 13.9264 14.6335 12.2396 15.3793 10.8487C16.125 9.45786 17.1371 8.39844 18.4155 7.67045C19.6939 6.93655 21.1321 6.5696 22.7301 6.5696C23.7836 6.5696 24.7602 6.71757 25.6598 7.01349C26.5653 7.30942 27.3673 7.74148 28.0657 8.30966C28.7641 8.87192 29.3323 9.56143 29.7702 10.3782C30.2141 11.195 30.4982 12.1301 30.6225 13.1836Z" fill="white"/>
<path d="M39.4693 25.2663C38.0903 25.2663 36.8977 24.9734 35.8915 24.3874C34.8913 23.7956 34.1189 22.9729 33.5744 21.9194C33.0299 20.86 32.7576 19.6319 32.7576 18.2351C32.7576 16.8265 33.0299 15.5954 33.5744 14.5419C34.1189 13.4825 34.8913 12.6598 35.8915 12.0739C36.8977 11.482 38.0903 11.1861 39.4693 11.1861C40.8483 11.1861 42.0379 11.482 43.0382 12.0739C44.0443 12.6598 44.8197 13.4825 45.3642 14.5419C45.9087 15.5954 46.1809 16.8265 46.1809 18.2351C46.1809 19.6319 45.9087 20.86 45.3642 21.9194C44.8197 22.9729 44.0443 23.7956 43.0382 24.3874C42.0379 24.9734 40.8483 25.2663 39.4693 25.2663ZM39.487 22.3366C40.1144 22.3366 40.6382 22.1591 41.0584 21.804C41.4786 21.4429 41.7953 20.9517 42.0083 20.3303C42.2273 19.7088 42.3368 19.0015 42.3368 18.2085C42.3368 17.4154 42.2273 16.7081 42.0083 16.0866C41.7953 15.4652 41.4786 14.974 41.0584 14.6129C40.6382 14.2519 40.1144 14.0714 39.487 14.0714C38.8538 14.0714 38.3211 14.2519 37.889 14.6129C37.4629 14.974 37.1403 15.4652 36.9213 16.0866C36.7083 16.7081 36.6017 17.4154 36.6017 18.2085C36.6017 19.0015 36.7083 19.7088 36.9213 20.3303C37.1403 20.9517 37.4629 21.4429 37.889 21.804C38.3211 22.1591 38.8538 22.3366 39.487 22.3366ZM57.3848 19.1939V11.3636H61.1667V25H57.5357V22.5231H57.3936C57.0859 23.3221 56.5739 23.9643 55.8578 24.4496C55.1475 24.9349 54.2805 25.1776 53.2566 25.1776C52.3451 25.1776 51.5431 24.9704 50.8507 24.5561C50.1582 24.1418 49.6167 23.5529 49.226 22.7894C48.8413 22.0259 48.646 21.1115 48.6401 20.0462V11.3636H52.4221V19.3714C52.428 20.1764 52.644 20.8126 53.0701 21.2802C53.4963 21.7478 54.0674 21.9815 54.7836 21.9815C55.2393 21.9815 55.6654 21.878 56.062 21.6708C56.4585 21.4577 56.7781 21.1441 57.0208 20.7298C57.2694 20.3155 57.3907 19.8035 57.3848 19.1939ZM64.1919 25V11.3636H67.8584V13.7429H68.0004C68.249 12.8965 68.6663 12.2573 69.2522 11.8253C69.8382 11.3873 70.5129 11.1683 71.2764 11.1683C71.4658 11.1683 71.67 11.1802 71.8889 11.2038C72.1079 11.2275 72.3003 11.2601 72.466 11.3015V14.6573C72.2884 14.604 72.0428 14.5567 71.7291 14.5153C71.4155 14.4738 71.1284 14.4531 70.868 14.4531C70.3116 14.4531 69.8145 14.5745 69.3765 14.8171C68.9445 15.0539 68.6012 15.3853 68.3467 15.8114C68.0981 16.2376 67.9738 16.7288 67.9738 17.2852V25H64.1919ZM79.9478 25.2663C78.551 25.2663 77.3496 24.9704 76.3434 24.3786C75.3432 23.7808 74.5737 22.9522 74.0352 21.8928C73.5025 20.8333 73.2362 19.6141 73.2362 18.2351C73.2362 16.8383 73.5054 15.6132 74.044 14.5597C74.5885 13.5002 75.3609 12.6746 76.3612 12.0827C77.3614 11.485 78.551 11.1861 79.93 11.1861C81.1197 11.1861 82.1613 11.4021 83.055 11.8342C83.9487 12.2662 84.656 12.8729 85.1768 13.6541C85.6977 14.4354 85.9847 15.3527 86.038 16.4062H82.4691C82.3685 15.7256 82.1022 15.1781 81.6701 14.7638C81.244 14.3436 80.6847 14.1335 79.9922 14.1335C79.4062 14.1335 78.8943 14.2933 78.4563 14.6129C78.0243 14.9266 77.6869 15.3853 77.4442 15.989C77.2016 16.5927 77.0803 17.3236 77.0803 18.1818C77.0803 19.0518 77.1986 19.7917 77.4354 20.4013C77.678 21.0109 78.0183 21.4755 78.4563 21.7951C78.8943 22.1147 79.4062 22.2745 79.9922 22.2745C80.4242 22.2745 80.8119 22.1857 81.1552 22.0082C81.5044 21.8306 81.7914 21.5732 82.0163 21.2358C82.2472 20.8925 82.3981 20.4812 82.4691 20.0018H86.038C85.9788 21.0434 85.6947 21.9608 85.1857 22.7539C84.6826 23.5411 83.9872 24.1566 83.0994 24.6005C82.2116 25.0444 81.1611 25.2663 79.9478 25.2663ZM94.6739 25.2663C93.2712 25.2663 92.0638 24.9822 91.0518 24.4141C90.0456 23.84 89.2703 23.0291 88.7258 21.9815C88.1813 20.928 87.909 19.6822 87.909 18.244C87.909 16.8413 88.1813 15.6102 88.7258 14.5508C89.2703 13.4914 90.0367 12.6657 91.0251 12.0739C92.0194 11.482 93.1854 11.1861 94.523 11.1861C95.4226 11.1861 96.2601 11.3311 97.0354 11.6211C97.8167 11.9052 98.4973 12.3343 99.0773 12.9084C99.6633 13.4825 100.119 14.2045 100.445 15.0746C100.77 15.9387 100.933 16.9508 100.933 18.1108V19.1495H89.4182V16.8058H97.3728C97.3728 16.2612 97.2544 15.7789 97.0177 15.3587C96.7809 14.9384 96.4524 14.61 96.0322 14.3732C95.6179 14.1306 95.1356 14.0092 94.5851 14.0092C94.011 14.0092 93.502 14.1424 93.0581 14.4087C92.6202 14.6692 92.2769 15.0213 92.0283 15.4652C91.7797 15.9032 91.6525 16.3915 91.6466 16.93V19.1584C91.6466 19.8331 91.7709 20.4161 92.0194 20.9073C92.2739 21.3986 92.632 21.7773 93.0937 22.0437C93.5553 22.31 94.1028 22.4432 94.7361 22.4432C95.1563 22.4432 95.541 22.384 95.8902 22.2656C96.2394 22.1473 96.5383 21.9697 96.7868 21.733C97.0354 21.4962 97.2248 21.2062 97.355 20.8629L100.853 21.0938C100.675 21.9342 100.311 22.6681 99.7609 23.2955C99.2164 23.9169 98.5121 24.4022 97.648 24.7514C96.7898 25.0947 95.7984 25.2663 94.6739 25.2663ZM114.747 15.2521L111.284 15.4652C111.225 15.1693 111.098 14.9029 110.903 14.6662C110.707 14.4235 110.45 14.2312 110.13 14.0891C109.817 13.9412 109.441 13.8672 109.003 13.8672C108.417 13.8672 107.923 13.9915 107.52 14.2401C107.118 14.4827 106.916 14.8082 106.916 15.2166C106.916 15.5421 107.047 15.8174 107.307 16.0423C107.568 16.2672 108.014 16.4477 108.648 16.5838L111.116 17.081C112.441 17.3532 113.43 17.7912 114.081 18.3949C114.732 18.9986 115.057 19.7917 115.057 20.7741C115.057 21.6679 114.794 22.4521 114.267 23.1268C113.746 23.8015 113.03 24.3282 112.119 24.707C111.213 25.0799 110.169 25.2663 108.985 25.2663C107.18 25.2663 105.742 24.8905 104.67 24.1388C103.605 23.3813 102.981 22.3514 102.797 21.0494L106.517 20.854C106.629 21.4045 106.902 21.8247 107.334 22.1147C107.766 22.3988 108.319 22.5408 108.994 22.5408C109.657 22.5408 110.189 22.4136 110.592 22.1591C111 21.8987 111.207 21.5643 111.213 21.1559C111.207 20.8126 111.062 20.5315 110.778 20.3125C110.494 20.0876 110.056 19.916 109.464 19.7976L107.103 19.3271C105.771 19.0607 104.78 18.5991 104.129 17.9421C103.484 17.2852 103.161 16.4477 103.161 15.4297C103.161 14.5537 103.398 13.7991 103.871 13.1658C104.351 12.5326 105.023 12.0443 105.887 11.701C106.757 11.3577 107.775 11.1861 108.941 11.1861C110.663 11.1861 112.018 11.5501 113.007 12.2781C114.001 13.006 114.581 13.9974 114.747 15.2521ZM128.785 15.2521L125.322 15.4652C125.263 15.1693 125.136 14.9029 124.941 14.6662C124.745 14.4235 124.488 14.2312 124.168 14.0891C123.855 13.9412 123.479 13.8672 123.041 13.8672C122.455 13.8672 121.961 13.9915 121.558 14.2401C121.156 14.4827 120.955 14.8082 120.955 15.2166C120.955 15.5421 121.085 15.8174 121.345 16.0423C121.606 16.2672 122.052 16.4477 122.686 16.5838L125.154 17.081C126.48 17.3532 127.468 17.7912 128.119 18.3949C128.77 18.9986 129.096 19.7917 129.096 20.7741C129.096 21.6679 128.832 22.4521 128.305 23.1268C127.785 23.8015 127.068 24.3282 126.157 24.707C125.251 25.0799 124.207 25.2663 123.023 25.2663C121.218 25.2663 119.78 24.8905 118.708 24.1388C117.643 23.3813 117.019 22.3514 116.835 21.0494L120.555 20.854C120.667 21.4045 120.94 21.8247 121.372 22.1147C121.804 22.3988 122.357 22.5408 123.032 22.5408C123.695 22.5408 124.228 22.4136 124.63 22.1591C125.038 21.8987 125.246 21.5643 125.251 21.1559C125.246 20.8126 125.1 20.5315 124.816 20.3125C124.532 20.0876 124.094 19.916 123.502 19.7976L121.141 19.3271C119.809 19.0607 118.818 18.5991 118.167 17.9421C117.522 17.2852 117.199 16.4477 117.199 15.4297C117.199 14.5537 117.436 13.7991 117.909 13.1658C118.389 12.5326 119.061 12.0443 119.925 11.701C120.795 11.3577 121.813 11.1861 122.979 11.1861C124.701 11.1861 126.056 11.5501 127.045 12.2781C128.039 13.006 128.619 13.9974 128.785 15.2521ZM133.688 25.2308C133.102 25.2308 132.599 25.0237 132.178 24.6094C131.764 24.1892 131.557 23.6861 131.557 23.1001C131.557 22.5201 131.764 22.023 132.178 21.6087C132.599 21.1944 133.102 20.9872 133.688 20.9872C134.256 20.9872 134.753 21.1944 135.179 21.6087C135.605 22.023 135.818 22.5201 135.818 23.1001C135.818 23.4908 135.718 23.8488 135.516 24.1744C135.321 24.494 135.064 24.7514 134.744 24.9467C134.424 25.1361 134.072 25.2308 133.688 25.2308ZM141.258 30.1136C140.779 30.1136 140.329 30.0752 139.909 29.9982C139.494 29.9272 139.151 29.8355 138.879 29.723L139.731 26.8999C140.175 27.036 140.575 27.11 140.93 27.1218C141.291 27.1336 141.601 27.0508 141.862 26.8732C142.128 26.6957 142.344 26.3938 142.51 25.9677L142.732 25.3906L137.84 11.3636H141.817L144.641 21.3778H144.783L147.632 11.3636H151.636L146.336 26.4737C146.082 27.2076 145.736 27.8468 145.298 28.3913C144.866 28.9418 144.318 29.3649 143.655 29.6609C142.992 29.9627 142.193 30.1136 141.258 30.1136ZM162.316 19.1939V11.3636H166.098V25H162.467V22.5231H162.325C162.018 23.3221 161.506 23.9643 160.789 24.4496C160.079 24.9349 159.212 25.1776 158.188 25.1776C157.277 25.1776 156.475 24.9704 155.782 24.5561C155.09 24.1418 154.548 23.5529 154.158 22.7894C153.773 22.0259 153.578 21.1115 153.572 20.0462V11.3636H157.354V19.3714C157.36 20.1764 157.576 20.8126 158.002 21.2802C158.428 21.7478 158.999 21.9815 159.715 21.9815C160.171 21.9815 160.597 21.878 160.994 21.6708C161.39 21.4577 161.71 21.1441 161.952 20.7298C162.201 20.3155 162.322 19.8035 162.316 19.1939ZM172.55 21.076L172.559 16.5394H173.11L177.478 11.3636H181.819L175.951 18.2173H175.054L172.55 21.076ZM169.123 25V6.81818H172.905V25H169.123ZM177.646 25L173.633 19.0607L176.155 16.3885L182.076 25H177.646Z" fill="#555555"/>
</svg>
