<svg width="183" height="33" viewBox="0 0 183 33" fill="none" xmlns="http://www.w3.org/2000/svg">
<ellipse cx="16.3127" cy="16.5" rx="16.3127" ry="16.5" fill="#FF8C39"/>
<path d="M30.6225 13.1884H26.734C26.663 12.6853 26.518 12.2384 26.299 11.8478C26.08 11.4513 25.7989 11.1139 25.4556 10.8357C25.1123 10.5576 24.7158 10.3445 24.266 10.1965C23.8221 10.0486 23.3397 9.97458 22.8189 9.97458C21.8778 9.97458 21.0581 10.2084 20.3597 10.6759C19.6613 11.1376 19.1198 11.8123 18.7351 12.7001C18.3504 13.5819 18.158 14.6532 18.158 15.9139C18.158 17.21 18.3504 18.299 18.7351 19.1809C19.1257 20.0628 19.6702 20.7286 20.3686 21.1784C21.067 21.6282 21.8749 21.8531 22.7923 21.8531C23.3072 21.8531 23.7836 21.7851 24.2216 21.6489C24.6655 21.5128 25.0591 21.3145 25.4023 21.0541C25.7456 20.7878 26.0297 20.4652 26.2546 20.0864C26.4854 19.7076 26.6452 19.2756 26.734 18.7903L30.6225 18.808C30.5219 19.6425 30.2704 20.4475 29.8679 21.2228C29.4714 21.9922 28.9357 22.6817 28.261 23.2913C27.5922 23.895 26.7932 24.3744 25.864 24.7295C24.9407 25.0787 23.8961 25.2533 22.7301 25.2533C21.1084 25.2533 19.6584 24.8864 18.38 24.1525C17.1075 23.4186 16.1013 22.3562 15.3615 20.9653C14.6276 19.5745 14.2607 17.8907 14.2607 15.9139C14.2607 13.9311 14.6335 12.2443 15.3793 10.8535C16.125 9.46262 17.1371 8.4032 18.4155 7.67522C19.6939 6.94131 21.1321 6.57436 22.7301 6.57436C23.7836 6.57436 24.7602 6.72233 25.6598 7.01825C26.5653 7.31418 27.3673 7.74624 28.0657 8.31442C28.7641 8.87668 29.3323 9.56619 29.7702 10.383C30.2141 11.1997 30.4982 12.1349 30.6225 13.1884ZM39.4693 25.2711C38.0903 25.2711 36.8977 24.9781 35.8915 24.3922C34.8913 23.8003 34.1189 22.9777 33.5744 21.9241C33.0299 20.8647 32.7576 19.6366 32.7576 18.2398C32.7576 16.8312 33.0299 15.6002 33.5744 14.5467C34.1189 13.4872 34.8913 12.6646 35.8915 12.0786C36.8977 11.4868 38.0903 11.1908 39.4693 11.1908C40.8483 11.1908 42.0379 11.4868 43.0382 12.0786C44.0443 12.6646 44.8197 13.4872 45.3642 14.5467C45.9087 15.6002 46.1809 16.8312 46.1809 18.2398C46.1809 19.6366 45.9087 20.8647 45.3642 21.9241C44.8197 22.9777 44.0443 23.8003 43.0382 24.3922C42.0379 24.9781 40.8483 25.2711 39.4693 25.2711ZM39.487 22.3414C40.1144 22.3414 40.6382 22.1639 41.0584 21.8087C41.4786 21.4477 41.7953 20.9565 42.0083 20.335C42.2273 19.7136 42.3368 19.0063 42.3368 18.2132C42.3368 17.4201 42.2273 16.7129 42.0083 16.0914C41.7953 15.47 41.4786 14.9787 41.0584 14.6177C40.6382 14.2567 40.1144 14.0761 39.487 14.0761C38.8538 14.0761 38.3211 14.2567 37.889 14.6177C37.4629 14.9787 37.1403 15.47 36.9213 16.0914C36.7083 16.7129 36.6017 17.4201 36.6017 18.2132C36.6017 19.0063 36.7083 19.7136 36.9213 20.335C37.1403 20.9565 37.4629 21.4477 37.889 21.8087C38.3211 22.1639 38.8538 22.3414 39.487 22.3414ZM57.3848 19.1987V11.3684H61.1667V25.0048H57.5357V22.5278H57.3936C57.0859 23.3268 56.5739 23.969 55.8578 24.4543C55.1475 24.9397 54.2805 25.1823 53.2566 25.1823C52.3451 25.1823 51.5431 24.9752 50.8507 24.5609C50.1582 24.1466 49.6167 23.5577 49.226 22.7942C48.8413 22.0307 48.646 21.1163 48.6401 20.0509V11.3684H52.4221V19.3762C52.428 20.1811 52.644 20.8174 53.0701 21.2849C53.4963 21.7525 54.0674 21.9863 54.7836 21.9863C55.2393 21.9863 55.6654 21.8827 56.062 21.6756C56.4585 21.4625 56.7781 21.1488 57.0208 20.7345C57.2694 20.3202 57.3907 19.8083 57.3848 19.1987ZM64.1919 25.0048V11.3684H67.8584V13.7477H68.0004C68.249 12.9013 68.6663 12.2621 69.2522 11.83C69.8382 11.3921 70.5129 11.1731 71.2764 11.1731C71.4658 11.1731 71.67 11.1849 71.8889 11.2086C72.1079 11.2323 72.3003 11.2648 72.466 11.3063V14.6621C72.2884 14.6088 72.0428 14.5615 71.7291 14.52C71.4155 14.4786 71.1284 14.4579 70.868 14.4579C70.3116 14.4579 69.8145 14.5792 69.3765 14.8219C68.9445 15.0586 68.6012 15.3901 68.3467 15.8162C68.0981 16.2423 67.9738 16.7336 67.9738 17.2899V25.0048H64.1919ZM79.9478 25.2711C78.551 25.2711 77.3496 24.9752 76.3434 24.3833C75.3432 23.7855 74.5737 22.9569 74.0352 21.8975C73.5025 20.8381 73.2362 19.6189 73.2362 18.2398C73.2362 16.8431 73.5054 15.6179 74.044 14.5644C74.5885 13.505 75.3609 12.6794 76.3612 12.0875C77.3614 11.4897 78.551 11.1908 79.93 11.1908C81.1197 11.1908 82.1613 11.4069 83.055 11.8389C83.9487 12.271 84.656 12.8776 85.1768 13.6589C85.6977 14.4401 85.9847 15.3575 86.038 16.411H82.4691C82.3685 15.7304 82.1022 15.1829 81.6701 14.7686C81.244 14.3484 80.6847 14.1383 79.9922 14.1383C79.4062 14.1383 78.8943 14.2981 78.4563 14.6177C78.0243 14.9314 77.6869 15.3901 77.4442 15.9938C77.2016 16.5974 77.0803 17.3284 77.0803 18.1866C77.0803 19.0566 77.1986 19.7964 77.4354 20.406C77.678 21.0157 78.0183 21.4803 78.4563 21.7999C78.8943 22.1195 79.4062 22.2793 79.9922 22.2793C80.4242 22.2793 80.8119 22.1905 81.1552 22.0129C81.5044 21.8354 81.7914 21.5779 82.0163 21.2406C82.2472 20.8973 82.3981 20.4859 82.4691 20.0065H86.038C85.9788 21.0482 85.6947 21.9656 85.1857 22.7587C84.6826 23.5458 83.9872 24.1614 83.0994 24.6053C82.2116 25.0491 81.1611 25.2711 79.9478 25.2711ZM94.6739 25.2711C93.2712 25.2711 92.0638 24.987 91.0518 24.4188C90.0456 23.8447 89.2703 23.0339 88.7258 21.9863C88.1813 20.9328 87.909 19.6869 87.909 18.2487C87.909 16.846 88.1813 15.615 88.7258 14.5555C89.2703 13.4961 90.0367 12.6705 91.0251 12.0786C92.0194 11.4868 93.1854 11.1908 94.523 11.1908C95.4226 11.1908 96.2601 11.3358 97.0354 11.6259C97.8167 11.9099 98.4973 12.339 99.0773 12.9131C99.6633 13.4872 100.119 14.2093 100.445 15.0793C100.77 15.9434 100.933 16.9555 100.933 18.1156V19.1543H89.4182V16.8105H97.3728C97.3728 16.266 97.2544 15.7836 97.0177 15.3634C96.7809 14.9432 96.4524 14.6147 96.0322 14.378C95.6179 14.1353 95.1356 14.014 94.5851 14.014C94.011 14.014 93.502 14.1472 93.0581 14.4135C92.6202 14.6739 92.2769 15.0261 92.0283 15.47C91.7797 15.9079 91.6525 16.3962 91.6466 16.9348V19.1631C91.6466 19.8379 91.7709 20.4208 92.0194 20.9121C92.2739 21.4033 92.632 21.7821 93.0937 22.0484C93.5553 22.3148 94.1028 22.4479 94.7361 22.4479C95.1563 22.4479 95.541 22.3888 95.8902 22.2704C96.2394 22.152 96.5383 21.9745 96.7868 21.7377C97.0354 21.501 97.2248 21.211 97.355 20.8677L100.853 21.0985C100.675 21.9389 100.311 22.6728 99.7609 23.3002C99.2164 23.9217 98.5121 24.407 97.648 24.7562C96.7898 25.0995 95.7984 25.2711 94.6739 25.2711ZM114.747 15.2569L111.284 15.47C111.225 15.174 111.098 14.9077 110.903 14.671C110.707 14.4283 110.45 14.2359 110.13 14.0939C109.817 13.9459 109.441 13.8719 109.003 13.8719C108.417 13.8719 107.923 13.9962 107.52 14.2448C107.118 14.4875 106.916 14.813 106.916 15.2214C106.916 15.5469 107.047 15.8221 107.307 16.047C107.568 16.2719 108.014 16.4524 108.648 16.5886L111.116 17.0857C112.441 17.358 113.43 17.796 114.081 18.3996C114.732 19.0033 115.057 19.7964 115.057 20.7789C115.057 21.6726 114.794 22.4568 114.267 23.1315C113.746 23.8063 113.03 24.333 112.119 24.7118C111.213 25.0847 110.169 25.2711 108.985 25.2711C107.18 25.2711 105.742 24.8953 104.67 24.1436C103.605 23.386 102.981 22.3562 102.797 21.0541L106.517 20.8588C106.629 21.4092 106.902 21.8295 107.334 22.1195C107.766 22.4036 108.319 22.5456 108.994 22.5456C109.657 22.5456 110.189 22.4183 110.592 22.1639C111 21.9034 111.207 21.569 111.213 21.1607C111.207 20.8174 111.062 20.5362 110.778 20.3173C110.494 20.0924 110.056 19.9207 109.464 19.8023L107.103 19.3318C105.771 19.0655 104.78 18.6038 104.129 17.9469C103.484 17.2899 103.161 16.4524 103.161 15.4344C103.161 14.5585 103.398 13.8039 103.871 13.1706C104.351 12.5373 105.023 12.049 105.887 11.7058C106.757 11.3625 107.775 11.1908 108.941 11.1908C110.663 11.1908 112.018 11.5548 113.007 12.2828C114.001 13.0108 114.581 14.0022 114.747 15.2569ZM128.785 15.2569L125.322 15.47C125.263 15.174 125.136 14.9077 124.941 14.671C124.745 14.4283 124.488 14.2359 124.168 14.0939C123.855 13.9459 123.479 13.8719 123.041 13.8719C122.455 13.8719 121.961 13.9962 121.558 14.2448C121.156 14.4875 120.955 14.813 120.955 15.2214C120.955 15.5469 121.085 15.8221 121.345 16.047C121.606 16.2719 122.052 16.4524 122.686 16.5886L125.154 17.0857C126.48 17.358 127.468 17.796 128.119 18.3996C128.77 19.0033 129.096 19.7964 129.096 20.7789C129.096 21.6726 128.832 22.4568 128.305 23.1315C127.785 23.8063 127.068 24.333 126.157 24.7118C125.251 25.0847 124.207 25.2711 123.023 25.2711C121.218 25.2711 119.78 24.8953 118.708 24.1436C117.643 23.386 117.019 22.3562 116.835 21.0541L120.555 20.8588C120.667 21.4092 120.94 21.8295 121.372 22.1195C121.804 22.4036 122.357 22.5456 123.032 22.5456C123.695 22.5456 124.228 22.4183 124.63 22.1639C125.038 21.9034 125.246 21.569 125.251 21.1607C125.246 20.8174 125.1 20.5362 124.816 20.3173C124.532 20.0924 124.094 19.9207 123.502 19.8023L121.141 19.3318C119.809 19.0655 118.818 18.6038 118.167 17.9469C117.522 17.2899 117.199 16.4524 117.199 15.4344C117.199 14.5585 117.436 13.8039 117.909 13.1706C118.389 12.5373 119.061 12.049 119.925 11.7058C120.795 11.3625 121.813 11.1908 122.979 11.1908C124.701 11.1908 126.056 11.5548 127.045 12.2828C128.039 13.0108 128.619 14.0022 128.785 15.2569ZM133.688 25.2356C133.102 25.2356 132.599 25.0284 132.178 24.6141C131.764 24.1939 131.557 23.6908 131.557 23.1049C131.557 22.5249 131.764 22.0277 132.178 21.6134C132.599 21.1991 133.102 20.992 133.688 20.992C134.256 20.992 134.753 21.1991 135.179 21.6134C135.605 22.0277 135.818 22.5249 135.818 23.1049C135.818 23.4955 135.718 23.8536 135.516 24.1791C135.321 24.4987 135.064 24.7562 134.744 24.9515C134.424 25.1409 134.072 25.2356 133.688 25.2356ZM141.258 30.1184C140.779 30.1184 140.329 30.0799 139.909 30.003C139.494 29.932 139.151 29.8402 138.879 29.7278L139.731 26.9046C140.175 27.0407 140.575 27.1147 140.93 27.1266C141.291 27.1384 141.601 27.0555 141.862 26.878C142.128 26.7004 142.344 26.3986 142.51 25.9724L142.732 25.3954L137.84 11.3684H141.817L144.641 21.3826H144.783L147.632 11.3684H151.636L146.336 26.4785C146.082 27.2124 145.736 27.8516 145.298 28.3961C144.866 28.9465 144.318 29.3697 143.655 29.6656C142.992 29.9675 142.193 30.1184 141.258 30.1184ZM162.316 19.1987V11.3684H166.098V25.0048H162.467V22.5278H162.325C162.018 23.3268 161.506 23.969 160.789 24.4543C160.079 24.9397 159.212 25.1823 158.188 25.1823C157.277 25.1823 156.475 24.9752 155.782 24.5609C155.09 24.1466 154.548 23.5577 154.158 22.7942C153.773 22.0307 153.578 21.1163 153.572 20.0509V11.3684H157.354V19.3762C157.36 20.1811 157.576 20.8174 158.002 21.2849C158.428 21.7525 158.999 21.9863 159.715 21.9863C160.171 21.9863 160.597 21.8827 160.994 21.6756C161.39 21.4625 161.71 21.1488 161.952 20.7345C162.201 20.3202 162.322 19.8083 162.316 19.1987ZM172.55 21.0808L172.559 16.5442H173.11L177.478 11.3684H181.819L175.951 18.2221H175.054L172.55 21.0808ZM169.123 25.0048V6.82294H172.905V25.0048H169.123ZM177.646 25.0048L173.633 19.0655L176.155 16.3933L182.076 25.0048H177.646Z" fill="white"/>
</svg>
